<svg width="1202" height="1377" viewBox="0 0 1202 1377" fill="none" xmlns="http://www.w3.org/2000/svg">
<g clip-path="url(#clip0_268_32)">
<path d="M955.05 273.96C949.895 282.888 952.954 294.305 961.882 299.459C970.81 304.614 982.227 301.555 987.381 292.627C992.536 283.699 989.477 272.282 980.549 267.128C971.621 261.973 960.204 265.032 955.05 273.96ZM828.066 306.2C852.212 272.703 880.621 262.602 906.253 263.248C932.129 263.9 955.515 275.528 969.068 286.057L973.363 280.529C958.935 269.32 934.145 256.949 906.43 256.25C878.472 255.546 847.877 266.745 822.387 302.107L828.066 306.2Z" fill="black"/>
<path d="M784.731 175.627C779.576 184.555 768.16 187.614 759.232 182.459C750.304 177.305 747.245 165.888 752.4 156.96C757.554 148.032 768.971 144.973 777.899 150.128C786.827 155.282 789.886 166.699 784.731 175.627ZM820.302 301.718C837.239 264.059 831.782 234.405 818.406 212.53C804.904 190.447 783.14 176.008 767.245 169.535L769.885 163.052C786.807 169.943 809.916 185.225 824.378 208.878C838.967 232.738 844.566 264.833 826.686 304.589L820.302 301.718Z" fill="black"/>
<path d="M760.326 1034.56C666.892 1196.4 470.618 1256.43 322.492 1170.91C174.366 1085.39 128.224 885.395 221.658 723.563C315.092 561.731 511.366 501.692 659.492 587.213C807.618 672.733 853.76 872.731 760.326 1034.56Z" stroke="#3D4047" stroke-width="20"/>
<rect x="791.852" y="277.96" width="80" height="45" rx="22.5" transform="rotate(30 791.852 277.96)" fill="#EBD790"/>
<circle cx="690.493" cy="533.519" r="250" transform="rotate(30 690.493 533.519)" fill="#EBD790"/>
<path d="M772.995 390.623L414.086 1112.24C406.381 1127.73 387.207 1133.51 372.225 1124.86L337.515 1104.82C322.532 1096.17 317.952 1076.67 327.514 1062.25L772.995 390.623Z" fill="#EBD790"/>
<circle cx="690.492" cy="533.519" r="215" transform="rotate(30 690.492 533.519)" fill="#EDF4FF"/>
<path d="M828.335 427.77C807.36 410.475 718.277 478.71 748.468 355.1C781.838 299.654 880.761 442.494 882.89 459.268C884.867 474.843 907.228 612.676 869.326 580.764C840.965 556.884 849.31 445.065 828.335 427.77Z" fill="white"/>
<path d="M585.031 700.337C550.145 679.249 465.574 596.758 515.788 446.041C571.288 378.436 549.088 513.647 535.345 531.633C521.602 549.62 555.431 598.618 610.931 643.275C666.431 687.932 619.917 721.425 585.031 700.337Z" fill="white"/>
</g>
<defs>
<clipPath id="clip0_268_32">
<rect width="704" height="1182" fill="white" transform="translate(591.653 0.714111) rotate(30)"/>
</clipPath>
</defs>
</svg>
