<svg width="1038" height="1249" viewBox="0 0 1038 1249" fill="none" xmlns="http://www.w3.org/2000/svg">
<g clip-path="url(#clip0_272_22)">
<path d="M694.719 252.4C738.164 179.476 808.565 199.678 838.334 218.895" stroke="#3D4047" stroke-width="30" stroke-linecap="round"/>
<path d="M692.906 251.554C720.843 171.399 660.115 130.455 626.258 120.002" stroke="#3D4047" stroke-width="30" stroke-linecap="round"/>
<mask id="path-3-inside-1_272_22" fill="white">
<path d="M356.732 1124.74C355.507 1130.09 358.838 1135.45 364.226 1136.55C438.446 1151.63 515.475 1140.3 581.588 1104.38C650.589 1066.88 702.81 1005.25 728.178 931.366C753.546 857.485 750.263 776.593 718.963 704.292C687.663 631.992 630.563 573.406 558.679 539.837C486.794 506.268 405.218 500.093 329.687 522.505C254.156 544.916 190.021 594.326 149.654 661.201C109.287 728.077 95.5492 807.682 111.09 884.658C125.98 958.413 166.738 1024.75 225.947 1071.97C230.245 1075.4 236.493 1074.52 239.816 1070.14L396.913 863.121C403.421 854.545 417.026 860.898 414.628 871.394L356.732 1124.74Z"/>
</mask>
<path d="M356.732 1124.74C355.507 1130.09 358.838 1135.45 364.226 1136.55C438.446 1151.63 515.475 1140.3 581.588 1104.38C650.589 1066.88 702.81 1005.25 728.178 931.366C753.546 857.485 750.263 776.593 718.963 704.292C687.663 631.992 630.563 573.406 558.679 539.837C486.794 506.268 405.218 500.093 329.687 522.505C254.156 544.916 190.021 594.326 149.654 661.201C109.287 728.077 95.5492 807.682 111.09 884.658C125.98 958.413 166.738 1024.75 225.947 1071.97C230.245 1075.4 236.493 1074.52 239.816 1070.14L396.913 863.121C403.421 854.545 417.026 860.898 414.628 871.394L356.732 1124.74Z" stroke="#3D4047" stroke-width="160" mask="url(#path-3-inside-1_272_22)"/>
<rect x="659.188" y="229.214" width="80" height="45" rx="22.5" transform="rotate(25 659.188 229.214)" fill="#EBD790"/>
<path d="M610.475 460.273L588.017 603.721L515.023 569.684L610.475 460.273Z" fill="#D9D9D9"/>
<circle cx="601.279" cy="107.317" r="35" transform="rotate(25 601.279 107.317)" fill="#3D4047"/>
<circle cx="863.203" cy="229.454" r="35" transform="rotate(25 863.203 229.454)" fill="#3D4047"/>
<path d="M650.222 343.091L370.735 1060.5C364.443 1076.65 345.813 1084.12 330.103 1076.8L293.941 1059.93C278.231 1052.61 271.981 1033.53 280.309 1018.33L650.222 343.091Z" fill="#EBD790"/>
<path d="M651.62 343.636L648.907 342.371L278.993 1017.61C270.249 1033.57 276.812 1053.6 293.307 1061.29L329.469 1078.16C345.964 1085.85 365.526 1078 372.133 1061.04L651.62 343.636Z" stroke="#3D4047" stroke-opacity="0.5" stroke-width="3"/>
<circle cx="580.489" cy="492.635" r="250" transform="rotate(25 580.489 492.635)" fill="url(#paint0_radial_272_22)"/>
<circle cx="580.491" cy="492.633" r="190" transform="rotate(25 580.491 492.633)" fill="#EDF4FF"/>
<path d="M692.426 398.775C674.374 386.002 604.232 453.795 623.375 344.271C648.273 293.136 736.232 406.148 738.757 420.38C741.1 433.595 765.845 550.048 733.195 526.4C708.763 508.703 710.478 411.547 692.426 398.775Z" fill="white"/>
<path d="M504.825 658.179C475.155 643.548 401.782 581.062 436.148 446.163C478.692 382.313 466.657 501.02 456.18 517.904C445.703 534.788 475.789 573.565 523.504 606.408C571.219 639.252 534.496 672.81 504.825 658.179Z" fill="white"/>
</g>
<defs>
<radialGradient id="paint0_radial_272_22" cx="0" cy="0" r="1" gradientUnits="userSpaceOnUse" gradientTransform="translate(580.489 492.635) rotate(90) scale(283.997)">
<stop offset="0.802104" stop-color="#EBD790"/>
<stop offset="1" stop-color="#857951"/>
</radialGradient>
<clipPath id="clip0_272_22">
<rect width="642" height="1077" fill="white" transform="translate(455.654 0.792725) rotate(25)"/>
</clipPath>
</defs>
</svg>
